<svg width="71" height="69" viewBox="0 0 71 69" fill="none" xmlns="http://www.w3.org/2000/svg">
<path d="M10.116 38.324C9.756 38.324 9.432 38.228 9.144 38.036C8.856 37.844 8.652 37.604 8.532 37.316L1.62 19.928C1.764 19.856 1.968 19.796 2.232 19.748C2.496 19.7 2.736 19.676 2.952 19.676C3.48 19.676 3.948 19.796 4.356 20.036C4.764 20.276 5.04 20.624 5.184 21.08L9.936 34.004L9.432 35.444L9.612 35.516L15.012 21.08C15.156 20.624 15.432 20.276 15.84 20.036C16.248 19.796 16.704 19.676 17.208 19.676C17.424 19.676 17.664 19.7 17.928 19.748C18.192 19.796 18.408 19.856 18.576 19.928L11.664 37.316C11.544 37.604 11.34 37.844 11.052 38.036C10.788 38.228 10.476 38.324 10.116 38.324ZM24.1616 16.976C23.4896 16.976 22.9256 16.76 22.4696 16.328C22.0136 15.896 21.7856 15.356 21.7856 14.708C21.7856 14.06 22.0136 13.532 22.4696 13.124C22.9256 12.692 23.4896 12.476 24.1616 12.476C24.8096 12.476 25.3616 12.692 25.8176 13.124C26.2736 13.532 26.5016 14.06 26.5016 14.708C26.5016 15.356 26.2736 15.896 25.8176 16.328C25.3616 16.76 24.8096 16.976 24.1616 16.976ZM22.5776 21.98C22.5776 21.188 22.8296 20.612 23.3336 20.252C23.8616 19.868 24.6536 19.676 25.7096 19.676V36.02C25.7096 36.812 25.4456 37.4 24.9176 37.784C24.4136 38.144 23.6336 38.324 22.5776 38.324V21.98ZM36.7791 38.324C35.0271 38.324 33.7191 37.844 32.8551 36.884C31.9911 35.9 31.5591 34.616 31.5591 33.032V14.78C31.5591 13.988 31.8111 13.412 32.3151 13.052C32.8431 12.668 33.6351 12.476 34.6911 12.476V32.924C34.6911 33.86 34.8831 34.532 35.2671 34.94C35.6511 35.348 36.2871 35.552 37.1751 35.552C38.0631 35.552 38.8791 35.336 39.6231 34.904C39.9351 35.264 40.0911 35.684 40.0911 36.164C40.0911 36.74 39.7911 37.244 39.1911 37.676C38.5911 38.108 37.7871 38.324 36.7791 38.324Z" fill="#07097C"/>
<path d="M7.52 44.34C7.52 42.564 8.516 41.676 10.508 41.676V43.98C10.196 44.316 9.944 44.64 9.752 44.952L9.896 45.096C10.664 44.016 11.48 43.176 12.344 42.576C13.208 41.976 14.204 41.676 15.332 41.676C17.516 41.676 19.016 42.72 19.832 44.808C21.2 42.72 23.024 41.676 25.304 41.676C27.008 41.676 28.316 42.252 29.228 43.404C30.164 44.532 30.632 46.02 30.632 47.868V58.02C30.632 58.812 30.368 59.4 29.84 59.784C29.336 60.144 28.568 60.324 27.536 60.324V48.048C27.536 46.896 27.296 45.996 26.816 45.348C26.336 44.7 25.58 44.376 24.548 44.376C23.468 44.376 22.544 44.748 21.776 45.492C21.008 46.212 20.624 47.184 20.624 48.408V58.02C20.624 58.812 20.372 59.4 19.868 59.784C19.364 60.144 18.596 60.324 17.564 60.324V48.048C17.564 46.896 17.324 45.996 16.844 45.348C16.364 44.7 15.608 44.376 14.576 44.376C13.472 44.376 12.536 44.772 11.768 45.564C11 46.356 10.616 47.328 10.616 48.48V58.02C10.616 58.812 10.352 59.4 9.824 59.784C9.32 60.144 8.552 60.324 7.52 60.324V44.34Z" fill="#07097C"/>
<path d="M53.52 43.232C53.52 42.44 53.76 41.816 54.24 41.36C54.744 40.904 55.5 40.676 56.508 40.676V42.692L55.788 43.628L55.896 43.772C56.64 42.812 57.492 42.056 58.452 41.504C59.412 40.952 60.552 40.676 61.872 40.676C63.936 40.676 65.604 41.252 66.876 42.404C68.148 43.532 68.784 45.044 68.784 46.94V53.096C68.784 54.992 68.124 56.504 66.804 57.632C65.484 58.76 63.768 59.324 61.656 59.324C60.528 59.324 59.484 59.096 58.524 58.64C57.588 58.16 56.76 57.536 56.04 56.768L55.932 56.948C56.1 57.188 56.352 57.452 56.688 57.74V64.076C56.688 65.708 55.632 66.524 53.52 66.524V43.232ZM61.188 56.552C62.604 56.552 63.708 56.24 64.5 55.616C65.292 54.968 65.688 54.08 65.688 52.952V47.084C65.688 45.908 65.292 45.008 64.5 44.384C63.708 43.76 62.592 43.448 61.152 43.448C59.88 43.448 58.812 43.784 57.948 44.456C57.084 45.104 56.652 45.92 56.652 46.904V53.132C56.652 54.092 57.06 54.908 57.876 55.58C58.692 56.228 59.796 56.552 61.188 56.552Z" fill="#07097C"/>
<mask id="mask0_57_77" style="mask-type:alpha" maskUnits="userSpaceOnUse" x="30" y="39" width="24" height="24">
<rect x="30" y="39" width="24" height="24" fill="#07097C"/>
</mask>
<g mask="url(#mask0_57_77)">
<path d="M42 51C42.55 51 43.0208 50.8042 43.4125 50.4125C43.8042 50.0208 44 49.55 44 49C44 48.45 43.8042 47.9792 43.4125 47.5875C43.0208 47.1958 42.55 47 42 47C41.45 47 40.9792 47.1958 40.5875 47.5875C40.1958 47.9792 40 48.45 40 49C40 49.55 40.1958 50.0208 40.5875 50.4125C40.9792 50.8042 41.45 51 42 51ZM42 58.35C44.0333 56.4833 45.5417 54.7875 46.525 53.2625C47.5083 51.7375 48 50.3833 48 49.2C48 47.3833 47.4208 45.8958 46.2625 44.7375C45.1042 43.5792 43.6833 43 42 43C40.3167 43 38.8958 43.5792 37.7375 44.7375C36.5792 45.8958 36 47.3833 36 49.2C36 50.3833 36.4917 51.7375 37.475 53.2625C38.4583 54.7875 39.9667 56.4833 42 58.35ZM42 61C39.3167 58.7167 37.3125 56.5958 35.9875 54.6375C34.6625 52.6792 34 50.8667 34 49.2C34 46.7 34.8042 44.7083 36.4125 43.225C38.0208 41.7417 39.8833 41 42 41C44.1167 41 45.9792 41.7417 47.5875 43.225C49.1958 44.7083 50 46.7 50 49.2C50 50.8667 49.3375 52.6792 48.0125 54.6375C46.6875 56.5958 44.6833 58.7167 42 61Z" fill="#07097C"/>
</g>
</svg>
